<?xml version="1.0" encoding="UTF-8"?><svg id="a" xmlns="http://www.w3.org/2000/svg" viewBox="0 0 269.5516 361.9562"><polygon points="5.9611 22.1927 13.0978 21.4212 20.2479 20.7691 27.3792 19.9042 34.5172 19.0934 41.6942 18.7183 48.8299 17.8195 56.0137 17.5644 63.1644 16.8386 70.3235 16.2046 77.4967 15.7804 84.6862 15.6702 91.8561 15.1829 99.0474 15.2133 106.2319 15.1453 113.3939 14.5186 120.574 14.417 127.7494 13.9816 134.9347 13.9764 142.1214 14.1431 149.307 14.3394 156.4931 13.8948 163.6764 14.0019 170.8522 14.4926 178.0387 14.3686 185.2246 14.4076 192.3877 15.1446 199.5665 15.4126 206.764 15.3498 213.9245 16.0413 221.1122 16.2422 228.2687 16.9244 235.4138 17.7278 242.6136 17.8918 249.7722 18.5525 256.9284 19.251 264.0614 20.1599 268.9002 25.825 269.2226 32.9996 269.166 40.1749 268.9972 47.3526 269.5315 54.5283 269.4134 61.7034 269.4807 68.8798 269.1533 76.0566 269.0274 83.2321 269.0775 90.4085 269.431 97.5855 268.8673 104.7614 269.0784 111.9386 269.3757 119.1152 269.0106 126.2916 269.4094 133.4693 269.4694 140.6458 269.3562 147.8241 269.133 154.9969 269.2107 162.1685 268.9121 169.3431 269.3958 176.52 269.2258 183.6932 269.147 190.8681 269.0933 198.0458 269.3177 205.2202 268.8767 212.3982 269.1196 219.5741 269.1024 226.7515 269.4576 233.9285 269.2093 241.1074 269.2479 248.2846 269.0257 255.4638 269.4029 262.6441 269.3192 269.8234 269.1786 277.0028 269.1774 284.183 269.2028 291.3643 269.4336 298.5408 269.0961 305.7204 269.1574 312.9 269.1635 320.0798 269.1744 327.2614 269.4148 334.4391 269.191 341.623 269.5516 348.8119 269.1136 356.0008 263.3651 361.6585 256.2224 361.3038 249.0782 361.496 241.9347 361.9562 234.7913 361.4689 227.6467 361.8824 220.5034 361.5939 213.3581 361.6029 206.2183 361.459 199.0798 361.8582 191.9383 361.8538 184.7945 361.7908 177.6543 361.3034 170.5125 361.5515 163.3679 361.5787 156.2265 361.6401 149.0817 361.8156 141.9388 361.5474 134.7944 361.8568 127.6506 361.6207 120.5047 361.4449 113.3606 361.8501 106.2145 361.2661 99.0673 361.5107 91.9211 361.5979 84.7748 361.7342 77.6277 361.4574 70.4795 361.276 63.336 361.781 56.1895 361.3553 49.043 361.7001 41.8963 361.9421 34.7478 361.3512 27.6032 361.6694 20.4523 361.4373 13.2966 361.7849 6.1408 361.3839 .265 355.9926 .1608 348.8553 .3318 341.7177 .0372 334.5772 .1719 327.4392 .1 320.3015 .1535 313.1627 .1317 306.0234 .0913 298.8854 .3454 291.7469 .1367 284.607 .7333 277.4696 .5846 270.3297 .4094 263.1904 .2123 256.0511 .7403 248.9118 .7357 241.7729 .682 234.632 .6553 227.4966 .1897 220.3618 .287 213.2249 .7901 206.0863 .6723 198.9504 .6304 191.813 .5368 184.6726 .4804 177.5356 .2994 170.395 .7972 163.2573 .5003 156.1169 .6573 148.9778 .5512 141.8362 .3374 134.6962 .4757 127.5548 .4735 120.412 .5815 113.2704 .3579 106.1283 .4828 98.9858 .6138 91.8422 .6959 84.7033 1.0353 77.5618 .8509 70.4194 1.0225 63.2775 .9435 56.1333 1.0417 48.9933 .7633 41.8465 .4389 34.6947 .6519 27.5437 5.9611 22.1927" style="fill:#75422c;"/><polyline points="227.4362 355.482 262.7707 355.482 262.7707 319.7899" style="fill:none; stroke:#ceb53a; stroke-linejoin:round; stroke-width:9px;"/><polyline points="228.7596 23.3173 262.8646 26.1067 262.8646 61.3603" style="fill:none; stroke:#ceb53a; stroke-linejoin:round; stroke-width:9px;"/><polygon points="13.9955 21.4417 21.1806 20.6443 28.4119 20.2938 35.5777 19.3139 42.7594 18.477 49.9671 17.959 57.1754 17.4366 64.3744 16.7704 71.5939 16.3881 78.8278 16.2656 86.0368 15.7394 93.2626 15.5346 100.4627 14.7499 107.6972 14.7682 114.908 14.22 122.1301 13.9028 129.3604 13.8515 136.5958 14.1847 143.8231 13.8464 151.0528 14.0112 158.2848 13.5405 165.5132 13.6398 172.7403 13.8198 179.9637 14.1491 187.1812 14.6271 194.4054 14.8982 201.6219 15.3611 208.8585 15.4622 216.0947 15.6255 223.3025 16.2461 230.5173 16.7741 237.6989 17.6942 244.8917 18.4487 252.1141 18.9361 259.2678 20.0462 264.3821 25.3382 264.3744 32.5411 263.9164 39.7464 264.1925 46.9497 264.0255 54.1524 264.1884 61.3565 264.3996 68.5608 264.3867 75.7639 264.2587 82.968 264.2576 90.1726 264.5223 97.3761 264.3268 104.5809 263.8623 111.7851 264.3804 118.9892 264.0233 126.1944 264.3188 133.3985 264.248 140.6044 264.056 147.8049 264.3523 155.0041 264.1809 162.2063 263.9701 169.4108 264.2379 176.6116 264.312 183.8141 264.4095 191.0194 264.2694 198.2214 264.3772 205.427 264.1849 212.6305 263.9658 219.8356 263.9181 227.0401 264.3276 234.2467 264.2892 241.4515 264.4306 248.6583 264.2867 255.8662 263.9721 263.0731 264.0434 270.2801 263.9963 277.4879 264.2653 284.6969 264.0006 291.901 263.8621 299.1083 264.0136 306.3155 263.916 313.5229 264.1097 320.7321 264.362 327.9374 264.0531 335.149 263.9926 342.3655 264.1036 349.5821 258.6381 355.4122 251.4505 354.9974 244.2632 355.4032 237.0746 355.0598 229.8872 355.0587 222.6979 355.0912 215.5142 355.3995 208.3316 355.2108 201.1461 355.1954 193.9583 355.2919 186.7742 355.0454 179.5884 355.0114 172.3997 355.3398 165.2144 355.1939 158.0255 355.3983 150.8386 354.8784 143.6503 355.0381 136.4624 355.1882 129.2725 354.9078 122.0844 355.2956 114.8943 355.3709 107.703 355.243 100.5129 355.0549 93.3226 355.2989 86.1314 355.273 78.9392 354.8061 71.7517 355.0989 64.5611 355.3793 57.3706 354.8865 50.1799 355.0437 42.9874 355.149 35.7988 355.2667 28.6039 355.3062 21.404 355.4178 14.2042 355.0411 8.5873 349.5739 8.4129 342.4084 8.3848 335.2408 8.5001 328.0754 8.8864 320.9109 8.7094 313.7442 8.6158 306.5774 8.8555 299.4123 8.7983 292.2458 8.4195 285.0783 8.7155 277.913 8.6855 270.7458 8.4468 263.5789 8.9558 256.4132 8.6669 249.2452 8.8514 242.0791 9.1309 234.9113 8.7002 227.7478 8.555 220.586 8.753 213.4218 8.9413 206.2553 8.8491 199.092 9.1661 191.9276 8.8831 184.7595 8.8059 177.595 8.6417 170.4269 8.7139 163.2611 8.9827 156.0942 9.1491 148.9276 8.8032 141.7582 9.1527 134.5916 8.8547 127.422 9.0878 120.2521 8.935 113.0827 9.0192 105.9135 9.0008 98.7433 8.8253 91.5718 8.8121 84.4053 9.2304 77.2363 9.2683 70.0669 8.7386 62.8964 8.8738 55.7251 8.7815 48.5573 8.8118 41.3834 9.231 34.2053 8.9486 27.026 13.9955 21.4417" style="fill:#cdac82;"/><polygon points="13.9955 21.4417 21.1806 20.6443 28.4119 20.2938 35.5777 19.3139 42.7594 18.477 49.9671 17.959 57.1754 17.4366 64.3744 16.7704 71.5939 16.3881 78.8278 16.2656 86.0368 15.7394 93.2626 15.5346 100.4627 14.7499 107.6972 14.7682 114.908 14.22 122.1301 13.9028 129.3604 13.8515 136.5958 14.1847 143.8231 13.8464 151.0528 14.0112 158.2848 13.5405 165.5132 13.6398 172.7403 13.8198 179.9637 14.1491 187.1812 14.6271 194.4054 14.8982 201.6219 15.3611 208.8585 15.4622 216.0947 15.6255 223.3025 16.2461 230.5173 16.7741 237.6989 17.6942 244.8917 18.4487 252.1141 18.9361 259.2678 20.0462 264.3821 25.3382 264.3744 32.5411 263.9164 39.7464 264.1925 46.9497 264.0255 54.1524 264.1884 61.3565 264.3996 68.5608 264.3867 75.7639 264.2587 82.968 264.2576 90.1726 264.5223 97.3761 264.3268 104.5809 263.8623 111.7851 264.3804 118.9892 264.0233 126.1944 264.3188 133.3985 264.248 140.6044 264.056 147.8049 264.3523 155.0041 264.1809 162.2063 263.9701 169.4108 264.2379 176.6116 264.312 183.8141 264.4095 191.0194 264.2694 198.2214 264.3772 205.427 264.1849 212.6305 263.9658 219.8356 263.9181 227.0401 264.3276 234.2467 264.2892 241.4515 264.4306 248.6583 264.2867 255.8662 263.9721 263.0731 264.0434 270.2801 263.9963 277.4879 264.2653 284.6969 264.0006 291.901 263.8621 299.1083 264.0136 306.3155 263.916 313.5229 264.1097 320.7321 264.362 327.9374 264.0531 335.149 263.9926 342.3655 264.1036 349.5821 258.6381 355.4122 251.4505 354.9974 244.2632 355.4032 237.0746 355.0598 229.8872 355.0587 222.6979 355.0912 215.5142 355.3995 208.3316 355.2108 201.1461 355.1954 193.9583 355.2919 186.7742 355.0454 179.5884 355.0114 172.3997 355.3398 165.2144 355.1939 158.0255 355.3983 150.8386 354.8784 143.6503 355.0381 136.4624 355.1882 129.2725 354.9078 122.0844 355.2956 114.8943 355.3709 107.703 355.243 100.5129 355.0549 93.3226 355.2989 86.1314 355.273 78.9392 354.8061 71.7517 355.0989 64.5611 355.3793 57.3706 354.8865 50.1799 355.0437 42.9874 355.149 35.7988 355.2667 28.6039 355.3062 21.404 355.4178 14.2042 355.0411 8.5873 349.5739 8.4129 342.4084 8.3848 335.2408 8.5001 328.0754 8.8864 320.9109 8.7094 313.7442 8.6158 306.5774 8.8555 299.4123 8.7983 292.2458 8.4195 285.0783 8.7155 277.913 8.6855 270.7458 8.4468 263.5789 8.9558 256.4132 8.6669 249.2452 8.8514 242.0791 9.1309 234.9113 8.7002 227.7478 8.555 220.586 8.753 213.4218 8.9413 206.2553 8.8491 199.092 9.1661 191.9276 8.8831 184.7595 8.8059 177.595 8.6417 170.4269 8.7139 163.2611 8.9827 156.0942 9.1491 148.9276 8.8032 141.7582 9.1527 134.5916 8.8547 127.422 9.0878 120.2521 8.935 113.0827 9.0192 105.9135 9.0008 98.7433 8.8253 91.5718 8.8121 84.4053 9.2304 77.2363 9.2683 70.0669 8.7386 62.8964 8.8738 55.7251 8.7815 48.5573 8.8118 41.3834 9.231 34.2053 8.9486 27.026 13.9955 21.4417" style="fill:none; stroke:#cdac82; stroke-miterlimit:10;"/><polyline points="224.4956 349.0726 258.0732 349.0726 258.0732 314.0218" style="fill:#cdac82; stroke:#cdac82; stroke-linejoin:round; stroke-width:9px;"/><polyline points="225.7533 22.8756 258.1625 25.6149 258.1625 60.2351" style="fill:#cdac82; stroke:#cdac82; stroke-linejoin:round; stroke-width:9px;"/><polygon points="5.621 7.8827 12.8715 7.0614 20.1729 6.7277 27.4236 5.9295 34.6725 5.1033 41.9096 4.1406 49.18 3.529 56.456 2.9733 63.7437 2.5827 71.0261 2.1204 78.3167 1.8042 85.6212 1.7978 92.8861 .9426 100.1908 1.0087 107.4788 .7705 114.77 .5783 122.0648 .4815 129.3566 .0313 136.6585 .4416 143.9544 0 151.2505 .2766 158.5476 .0935 165.8417 .2495 173.1385 .3391 180.4128 1.1468 187.716 1.1162 194.9995 1.6069 202.3141 1.5456 209.5902 2.164 216.8885 2.4552 224.1491 3.2656 231.4175 3.965 238.7111 4.4042 245.9669 5.244 253.1763 6.4632 258.3733 11.8696 258.155 19.0443 257.8056 26.2196 258.1694 33.3972 258.2263 40.5729 258.4178 47.748 257.8812 54.9245 258.3533 62.1012 257.923 69.2767 257.9645 76.4532 258.1382 83.6302 258.4373 90.806 258.2274 97.9832 257.9624 105.1598 258.0533 112.3363 258.347 119.514 258.3838 126.6904 257.9869 133.8687 257.8051 141.0416 258.4484 148.2132 258.2166 155.3878 258.0992 162.5647 258.1217 169.7379 258.2948 176.9128 258.0974 184.0905 257.83 191.2649 257.9187 198.4428 257.8953 205.6188 258.4519 212.7962 257.8258 219.9731 257.8304 227.1521 258.397 234.3293 258.0468 241.5085 258.4445 248.6888 257.9273 255.868 258.0348 263.0474 258.2884 270.2276 258.2769 277.4089 258.4154 284.5855 258.312 291.7651 258.1779 298.9447 258.0007 306.1244 257.8664 313.306 258.1931 320.4837 258.2766 327.6677 257.9493 334.8566 258.4703 342.0455 252.5389 347.7304 245.2846 347.8312 238.0304 347.783 230.7751 347.7696 223.5209 347.426 216.2649 347.3375 209.0143 347.9449 201.7651 347.3976 194.5128 347.4174 187.2583 347.6864 180.0074 347.4331 172.7548 347.8972 165.4994 347.3419 158.2473 347.703 150.9916 347.9524 143.738 347.5911 136.4829 347.4925 129.2282 347.9009 121.9715 347.857 114.7167 347.9388 107.4597 347.9929 100.2017 347.7124 92.9447 347.8072 85.6876 347.949 78.4296 347.9514 71.1706 347.4474 63.9163 347.3364 56.659 347.4157 49.4016 347.3972 42.1442 347.6222 34.8848 347.8172 27.6229 347.6206 20.3634 347.5015 13.0988 347.674 5.8342 347.7717 .3551 342.0374 .174 334.9 .0777 327.7621 .5075 320.6227 .2018 313.484 .0884 306.3463 .1857 299.2075 .3491 292.0685 .3088 284.9305 .558 277.7919 0 270.6516 .1989 263.5136 .2941 256.374 .401 249.2351 .49 242.0963 .7031 234.9565 .1488 227.8167 .6406 220.6767 .7392 213.5415 .2128 206.4066 .2971 199.2697 .5613 192.1307 .7955 184.9953 .6374 177.8577 .3036 170.7171 .5408 163.5805 .7258 156.4404 .472 149.3016 .6364 142.1619 .8622 135.0229 .8032 127.8813 .8659 120.7418 .427 113.5995 .6547 106.457 .4608 99.315 .9062 92.1739 .5007 85.0306 .7649 77.8872 .9418 70.7485 .3384 63.6055 .4498 56.4636 .8053 49.3219 .9381 42.1781 .4944 35.0372 .4126 27.8907 .4373 20.7395 .5735 13.5884 5.621 7.8827" style="fill:#75422c;"/><polyline points="220.0793 343.5267 253.9687 343.5267 253.9687 307.8346" style="fill:none; stroke:#ceb53a; stroke-linejoin:round; stroke-width:9px;"/><polyline points="221.3486 7.362 254.0589 10.1514 254.0589 45.405" style="fill:none; stroke:#ceb53a; stroke-linejoin:round; stroke-width:9px;"/><polygon points="48.1758 40.646 55.2523 39.693 62.3448 38.9172 69.4459 38.1645 76.5414 37.369 83.6425 36.6004 90.7797 36.2775 97.8926 35.5901 105.0123 35.0253 112.1532 34.8511 119.297 34.7831 126.4366 34.464 133.5831 34.7726 140.7226 34.5532 147.8685 34.5253 155.0017 35.0474 162.1362 35.3722 169.2832 35.4741 176.4025 36.093 183.5508 36.4121 190.6429 37.3433 197.7475 38.1411 204.8301 39.1173 207.9188 43.4249 207.8851 50.6018 207.7113 57.7782 207.8513 64.9544 207.9961 72.1318 207.9607 79.308 207.994 86.4861 207.9728 93.6587 208.0154 100.8301 208.0778 108.0044 208.158 115.181 208.0986 122.354 208.1386 129.5287 207.8924 136.7061 208.1999 143.8803 207.9793 151.058 208.109 158.2337 208 165.4109 207.8346 172.5875 208.114 179.7663 207.9369 186.9432 207.7202 194.1222 208.0804 201.3022 207.9686 208.4812 207.9091 215.6604 207.9347 222.8403 207.9123 230.0214 208.1331 237.1977 207.9381 244.3771 208.0884 251.5564 207.766 258.7359 207.7734 265.9173 208.1194 273.0948 207.8816 280.2785 208.143 287.4671 208.0385 294.6557 204.4042 298.8373 197.3128 299.0192 190.218 298.6661 183.1252 298.9887 176.0309 299.1137 168.9371 299.0336 161.8413 299.0537 154.7473 299.1168 147.6512 298.773 140.5541 298.8199 133.458 298.7308 126.3617 299.1361 119.2647 299.0569 112.1666 299.1463 105.0732 298.8292 97.9767 299.1814 90.8802 298.8017 83.7837 298.7889 76.6852 299.0667 69.5907 299.0304 62.4899 299.1492 55.3843 298.997 48.2787 298.9025 44.8709 294.6497 44.9218 287.5103 44.5881 280.371 44.876 273.2327 45.0251 266.093 44.9898 258.9543 44.761 251.8135 44.8595 244.6785 44.6186 237.5444 44.7535 230.4077 45.0381 223.2689 44.6444 216.133 44.966 208.9963 44.9061 201.8563 44.6932 194.7193 44.9117 187.5795 45.091 180.4415 45.0538 173.3018 44.734 166.1623 44.9429 159.0213 45.1047 151.8821 44.8319 144.7404 45.0914 137.5982 45.1925 130.4568 44.7531 123.3147 45.1861 116.1728 44.9013 109.029 44.8929 101.8902 44.7192 94.7482 44.7764 87.6064 44.8725 80.4646 44.8564 73.3207 44.7799 66.1807 45.239 59.0351 45.1784 51.884 45.2764 44.7331 48.1758 40.646" style="fill:#683523;"/><g style="opacity:.2;"><path d="M60.252,65.3414c-2.5547,1.9488-2.7047,5.7582-1.0118,8.332,2.0708,3.1483,6.3801,3.5524,9.6297,2.1945,6.7132-2.8051,7.9115-11.7419,4.4802-17.5096-3.9024-6.5596-12.8486-8.3007-19.7012-6.0327-6.6045,2.1858-11.4891,7.8236-13.7765,14.2692-2.3975,6.7562-1.8325,14.1671,1.6728,20.4297,3.666,6.5497,10.0037,11.4105,17.0519,13.8374,7.8042,2.6871,16.3842,2.0889,24.0482-.7878,8.1143-3.0458,15.1075-8.4763,20.4845-15.2312,5.4148-6.8024,9.236-14.7548,11.8666-23.0118,3.0177-9.4722,4.4839-19.3567,5.5468-29.2149.266-2.4668.5062-4.9363.7393-7.4064.0221-.2338-.2587-.438-.4747-.3616-8.9055,3.1475-16.2914,9.1963-24.3824,13.8816-4.0233,2.3298-8.2764,4.328-12.8373,5.3335-4.778,1.0534-10.96.8134-13.3849-4.2273-1.0225-2.1254-.842-4.7124,1.0481-6.2765,1.568-1.2976,4.0663-1.7604,5.6636-.2702.3526.329.8842-.2002.5303-.5303-2.9942-2.7934-8.0346-.16-8.5636,3.5579-.3173,2.2299.66,4.4573,2.1827,6.0537,1.7619,1.8472,4.2155,2.727,6.7203,2.9354,5.0886.4233,10.3423-1.5066,14.8475-3.6961,4.6202-2.2453,8.8883-5.1296,13.1886-7.9195,4.8188-3.1263,9.7434-6.1952,15.1864-8.119l-.4747-.3616c-.894,9.4757-1.8999,18.9735-4.0404,28.2627-1.9166,8.3173-4.7724,16.4595-9.1089,23.8385-4.1682,7.0926-9.724,13.4226-16.6833,17.8808-6.8516,4.3893-14.9549,7.0003-23.1383,6.6232-7.278-.3353-14.3908-3.2684-19.7764-8.1817-5.1684-4.7152-8.6238-11.2859-8.6519-18.365-.0261-6.5817,2.6442-13.254,7.4396-17.8036,5.1189-4.8565,12.7253-6.7758,19.4091-4.1914,3.3022,1.2769,6.1353,3.7245,7.5065,7.0271,1.2421,2.9916,1.375,6.4987.1884,9.5293-1.3037,3.3297-4.3535,5.8153-7.9829,6.0292-1.7945.1057-3.7052-.3743-5.0336-1.6394-1.1378-1.0836-1.7594-2.6647-1.7914-4.2246-.0312-1.5245.5223-3.0605,1.7614-4.0057.3787-.2889.0055-.9405-.3785-.6476h0Z" style="fill:#dcddce;"/><path d="M121.6606,25.6512c-4.9769,4.9457-10.7404,9.0358-16.9501,12.288-6.3601,3.3309-13.2032,5.8556-20.2009,7.4638-7.1471,1.6425-15.0124,2.0212-21.5319-1.8597-2.7187-1.6184-5.0496-3.9158-6.4375-6.7816-1.2385-2.5572-1.5254-5.55-.914-8.316.6031-2.7284,2.1149-5.3055,4.5007-6.8342,2.4557-1.5735,5.8527-1.8993,8.4337-.4244.6318.3611,1.1767.8247,1.6513,1.3748.3158.3661.8443-.1664.5303-.5303-1.9778-2.2923-5.2246-2.9458-8.0928-2.2856-2.8643.6592-5.2106,2.6969-6.5663,5.2672-1.3461,2.552-1.7792,5.5396-1.3519,8.3823.4677,3.1115,2.1042,5.9246,4.3415,8.1057,5.3458,5.2117,13.0923,6.4452,20.2522,5.5827,4.0486-.4877,8.0224-1.525,11.9034-2.7559,3.5466-1.1248,7.0258-2.4671,10.4007-4.034,6.7258-3.1227,13.0452-7.168,18.5286-12.1732.6919-.6315,1.3688-1.279,2.0332-1.9393.3428-.3407-.1874-.8711-.5303-.5303h0Z" style="fill:#dcddce;"/><path d="M58.6754,39.7454c-6.0885-6.7349-14.152-11.6401-22.94-13.9311-4.3763-1.1409-9.6369-2.078-13.6365.6444-1.5828,1.0774-2.8785,2.6771-3.2638,4.5862-.3871,1.9182.1512,3.9012,1.2403,5.5005,3.0016,4.408,8.765,4.725,13.4837,3.4168.4645-.1288.2672-.8526-.1994-.7232-4.0987,1.1363-9.0839,1.0994-12.0871-2.3604-1.2289-1.4158-2.0015-3.3144-1.7831-5.2072.2258-1.9568,1.5263-3.6153,3.14-4.6664,3.8729-2.5226,8.9237-1.5261,13.1029-.4158,4.0293,1.0704,7.9029,2.6958,11.4987,4.8045,4.0678,2.3856,7.7517,5.384,10.9139,8.882.3244.3588.8535-.1729.5303-.5303h0Z" style="fill:#dcddce;"/><path d="M15.0672,41.5809c8.9707,7.6596,15.2898,18.1961,18.1157,29.6284,1.4147,5.723,1.9467,11.6629,1.4976,17.5438-.1936,2.5357-.5385,5.3473-2.1264,7.438-.7629,1.0045-1.8673,1.744-3.1401,1.8797-1.4923.1591-2.9694-.5026-4.0763-1.4678-2.7548-2.4018-3.1434-6.5123-3.4986-9.9212-.1802-1.7293-.2709-3.7278.7597-5.2309.8608-1.2555,2.6113-2.1492,4.0575-1.3534.4231.2328.802-.4146.3785-.6476-1.1572-.6368-2.5001-.4693-3.6038.2093-1.2657.7781-2.0183,2.056-2.2933,3.4968-.3309,1.7338-.0658,3.5114.1609,5.2406.228,1.739.4891,3.498,1.122,5.1435,1.0397,2.7029,3.3618,5.2458,6.4555,5.302,2.8246.0513,4.6818-2.2276,5.5668-4.6705.9953-2.7473,1.0949-5.8279,1.1374-8.7198.0472-3.2075-.1934-6.4162-.6925-9.5845-.9936-6.308-3.0472-12.4465-6.0138-18.0999-3.3275-6.3412-7.8276-12.0644-13.2765-16.7169-.3652-.3118-.8981.2163-.5303.5303h0Z" style="fill:#dcddce;"/><path d="M19.5276,141.5633c1.8344-10.5103,5.8782-20.993,13.8938-28.343,3.6969-3.3899,8.1213-5.9691,12.9878-7.243,5.5478-1.4523,11.3466-1.2549,17.0113-.7811,6.4177.5369,12.8444,1.4472,19.2971.9937l-.0997-.7366c-6.5113,2.5286-13.1208,5.3363-18.3988,10.0323-4.7967,4.2678-8.2157,10.3496-8.2741,16.8831-.0553,6.1857,3.5891,12.5094,9.824,14.1804,5.6382,1.511,12.4729-2.2206,12.4158-8.5075-.024-2.6471-1.2666-5.3465-3.5434-6.7862-2.119-1.34-5.198-1.3024-7.1208.3929-.4761.4197-.8439.9428-1.0933,1.5246-.1881.4388.4578.8213.6476.3785,1.0148-2.367,4.0535-2.9937,6.2915-2.1119,2.4367.9601,3.8797,3.5923,4.0497,6.113.4088,6.0604-6.1454,9.7438-11.537,8.2493-5.868-1.6265-9.2361-7.6075-9.1841-13.4332.0536-6.0012,3.0736-11.6683,7.3708-15.7263,5.2696-4.9763,12.0857-7.8773,18.7515-10.4659.3623-.1407.3568-.7687-.0997-.7366-11.6191.8166-23.3098-2.9357-34.8587-.5696-10.2436,2.0987-18.3951,9.5567-23.2092,18.6128-2.9614,5.5708-4.7638,11.6847-5.8452,17.8807-.0824.472.6402.6747.7232.1994h0Z" style="fill:#dcddce;"/><path d="M29.7226,167.2509c1.8441,1.3437,3.8326,2.7782,4.8906,4.8651.9767,1.9264,1.0568,4.539-.7169,6.0372-1.4739,1.245-3.6572,1.2575-5.4342.7976-1.9648-.5085-3.7353-1.6977-5.1377-3.1437-2.9476-3.0395-4.3134-7.4494-3.2114-11.5804,1.0731-4.0229,4.2419-7.4639,8.3387-8.4578,4.0548-.9836,8.5631.3554,11.2779,3.5536,2.7936,3.2911,3.6933,7.7527,6.4992,11.0444,2.5086,2.9429,6.4036,4.4696,10.2276,4.4538,3.9373-.0163,7.6352-1.7455,10.2749-4.6503,2.6938-2.9642,4.2453-6.9249,4.2311-10.9341-.0152-4.2786-1.7047-8.4488-4.4268-11.7181-.7003-.8411-1.4729-1.615-2.3038-2.3268-.3647-.3125-.8976.2157-.5303.5303,3.5342,3.0278,5.9961,7.3679,6.4383,12.0346.4138,4.3671-1.0684,8.8018-4.0622,12.0179-2.9106,3.1267-7.0504,4.701-11.303,4.2029-2.0649-.2419-4.0787-.9689-5.7973-2.1423-1.8176-1.2409-3.1085-2.9923-4.147-4.9077-2.0604-3.8005-3.4388-8.157-7.3601-10.4976-3.4992-2.0886-8.0488-2.3191-11.6928-.4635-3.6535,1.8603-6.1794,5.6552-6.7069,9.6928-.5419,4.1484,1.2039,8.381,4.2509,11.1929,2.6209,2.4187,7.06,4.3566,10.4542,2.3049,1.7223-1.0411,2.4689-3.012,2.2368-4.9642-.2641-2.2212-1.5955-4.0417-3.2273-5.495-.8479-.7552-1.7671-1.4264-2.6838-2.0943-.3906-.2846-.7652.3658-.3785.6476h0Z" style="fill:#dcddce;"/><path d="M56.4255,171.4177c-1.8627-.3407-3.56-1.3445-4.7432-2.8266-1.2231-1.5321-1.7473-3.5306-1.4799-5.4693.2686-1.9475,1.3209-3.7315,2.9742-4.8142,1.5878-1.0398,3.6267-1.4596,5.4709-.9306.9499.2725,2.0129.8818,2.2884,1.9033.2182.8091-.1368,1.8554-1.0099,2.0796-.4672.1199-.2692.8435.1994.7232.903-.2318,1.4699-1.0519,1.5926-1.9466.1405-1.0238-.3353-1.9702-1.1286-2.6058-1.7184-1.377-4.2937-1.3908-6.2755-.6358-2.1084.8032-3.7466,2.458-4.4874,4.5939-.738,2.1276-.5441,4.5588.5651,6.5224,1.2127,2.1469,3.4146,3.6872,5.8346,4.1298.4719.0863.6742-.6364.1994-.7232h0Z" style="fill:#dcddce;"/><path d="M73.9958,169.7614c-2.3207-3.3317-.2771-8.4033,3.6337-9.3302,2.0634-.489,4.3234.1418,5.9738,1.435,1.7114,1.341,2.6427,3.3738,2.6504,5.5375.0089,2.4963-1.1208,4.916-3.0186,6.5289l.589.4544c1.4196-2.932,4.2113-5.0212,7.3837-5.7042,3.1871-.6862,6.5316.2688,9.0303,2.3257,1.4212,1.1699,2.5394,2.6447,3.2778,4.3306l.6476-.3785c-1.6174-3.3977-3.4791-7.4671-1.7849-11.2053.7212-1.5914,2.0972-2.7759,3.8393-3.0789,1.6946-.2947,3.2231.4453,4.1241,1.8912.8284,1.3293,1.1898,2.8878,1.823,4.309.6037,1.355,1.5115,2.491,2.7704,3.2909,2.4085,1.5303,5.7397,1.6794,8.1118-.0043,2.6847-1.9057,3.8786-5.6376,2.6815-8.7229-.1727-.4452-.8982-.2516-.7232.1994,1.1438,2.9479-.0647,6.5991-2.8305,8.1933-2.6993,1.556-6.4465.7344-8.3845-1.6631-1.8893-2.3373-1.7263-6.1538-4.5775-7.7505-2.8427-1.5919-6.2998.3059-7.5219,3.0445-1.7814,3.992.0921,8.2355,1.8248,11.8753.2096.4402.8378.0557.6476-.3785-1.3766-3.1428-4.1154-5.6166-7.3724-6.6929-3.289-1.0869-6.936-.5209-9.8036,1.4034-1.6248,1.0903-2.9571,2.5736-3.811,4.3374-.1878.3878.2597.7343.589.4544,3.7022-3.1465,4.5418-9.3764.7515-12.8028-1.7178-1.5529-4.1106-2.3845-6.4202-2.0732-2.1947.2958-4.0352,1.6859-5.0224,3.6556-1.0857,2.1664-1.1419,4.8649.2739,6.8974.2739.3933.9244.0188.6476-.3785h0Z" style="fill:#dcddce;"/><path d="M96.6544,89.5781c-2.7966.4253-5.5148-1.2533-7.1563-3.4144-1.8033-2.3742-2.6408-5.3156-3.438-8.1427-.4077-1.4458-.8023-3.0735.0276-4.4494.6467-1.0721,1.8213-1.7374,2.9922-2.088,2.3375-.7,5.2961-.3485,7.032,1.4978,1.617,1.7198,1.56,5.066-.7522,6.1744-.4351.2086-.055.8555.3785.6476,2.2447-1.0761,2.7461-4.0727,1.7348-6.1698-1.2435-2.5786-4.5179-3.4765-7.1588-3.1627-2.8882.3432-5.7123,2.2241-5.451,5.4393.1392,1.7129.7682,3.4426,1.2984,5.0682.5226,1.6024,1.15,3.1906,2.0452,4.6249,1.8259,2.9255,5.0598,5.2434,8.6469,4.698.4756-.0723.2736-.7951-.1994-.7232h0Z" style="fill:#dcddce;"/><path d="M80.877,101.8822c-6.2834-.0319-13.1823-.9934-17.5604-5.986-.9361-1.0675-1.7119-2.2986-2.2085-3.6317-.4741-1.2727-.8129-2.7539-.384-4.0867.5399-1.6777,2.2962-1.9171,3.8231-2.0807,1.6023-.1717,3.2531-.1972,4.8276.1893,1.6198.3977,3.0936,1.2454,4.0473,2.6405.8844,1.2938,1.2534,2.8834.6806,4.3786-.1728.4511.552.6463.7232.1994,1.1045-2.8828-.8678-6.048-3.4703-7.3025-1.5986-.7706-3.3891-1.0088-5.149-.9677-.8492.0198-1.6957.1038-2.5365.2212-.854.1192-1.7367.2924-2.4535.8016-2.5901,1.84-1.2091,5.9405.0849,8.1322,1.6055,2.7193,4.1995,4.813,7.0657,6.0867,3.9239,1.7437,8.2624,2.1341,12.5098,2.1557.4827.0025.4833-.7475,0-.75h0Z" style="fill:#dcddce;"/><path d="M29.1365,114.7725c-2.002,2.3891-2.9577,5.5823-2.5875,8.6814.3576,2.9931,1.9484,5.6786,4.3348,7.5079,2.3168,1.776,5.5689,2.8611,8.4641,2.0474,1.49-.4188,2.7177-1.4098,3.3597-2.8278.6204-1.3701.7391-2.9312.599-4.414-.1687-1.7853-.8096-3.5198-2.5675-4.2692-1.8749-.7994-3.9006-.2268-5.7483.3522-.459.1438-.263.8681.1994.7232,1.5402-.4826,3.1996-1.0103,4.81-.5459,1.526.4401,2.2515,1.7059,2.4898,3.2017.429,2.6931-.1639,6.0128-3.0832,6.978-2.5731.8507-5.5233-.0576-7.6756-1.5501-2.2-1.5256-3.7952-3.861-4.3173-6.4941-.6127-3.0903.2286-6.4444,2.253-8.8603.308-.3676-.2198-.9009-.5303-.5303h0Z" style="fill:#dcddce;"/><path d="M94.8725,140.0122c1.7661,3.3535,1.4152,8.1052-2.4534,9.7866-1.5717.6831-3.3695.4795-4.7176-.5869-1.1996-.949-1.9418-2.3886-2.325-3.8452-1.7198-6.5374,3.6703-13.4288,9.9619-14.7811,4.2239-.9079,8.5566.4882,12.4545,2.0317,3.8069,1.5074,7.5926,3.3053,11.7083,3.7665,3.3097.3708,6.914-.1908,9.5967-2.2795,2.3661-1.8423,3.6-4.8909,3.1383-7.8655-.416-2.6798-2.4359-4.9596-5.2581-4.9814-2.3364-.0181-4.9854,1.4015-5.6484,3.7668-.1645.5869-.1691,1.1834-.075,1.7819.0748.4754.7976.2736.7232-.1994-.4371-2.7797,2.6195-4.6501,5.0692-4.5979,3.2314.0689,4.7952,3.3772,4.4964,6.2549-.3654,3.5191-3.0261,6.0001-6.3172,6.9535-3.7277,1.0799-7.6015.318-11.1811-.9369-4.0232-1.4104-7.8488-3.4121-12.0473-4.2896-3.6249-.7576-7.363-.5416-10.6162,1.337-5.2838,3.0512-8.9506,10.1721-6.0574,16.036,1.3404,2.7168,4.2516,4.3733,7.2207,3.1896,3.3173-1.3224,4.6475-4.9452,3.9486-8.2837-.1931-.9224-.5352-1.8036-.9735-2.6359-.225-.4272-.8726-.0486-.6476.3785h0Z" style="fill:#dcddce;"/><path d="M103.1398,130.8095c-2.2031-1.4629-4.1779-3.2527-5.8523-5.3-.8348-1.0207-1.6002-2.1088-2.2607-3.2507-.7152-1.2365-1.1125-2.561-.2843-3.8454.6601-1.0237,1.7509-1.7813,2.8072-2.3506,1.0391-.5601,2.1706-.9422,3.3345-1.1378,2.3-.3866,4.8393.0353,6.696,1.5133,1.0335.8228,1.9474,2.0703,1.8677,3.454-.0721,1.2513-1.1151,2.4913-2.43,2.4071-.4819-.0308-.4801.7193,0,.75,1.2562.0804,2.3611-.7809,2.8629-1.8924.5546-1.2284.3178-2.6019-.3894-3.719-1.4454-2.283-4.2702-3.3739-6.8836-3.396-2.6616-.0225-5.3804.9612-7.3858,2.7177-1.0453.9156-1.8761,2.1667-1.6997,3.6133.1825,1.4961,1.1681,2.8585,2.0139,4.0603,1.9487,2.7691,4.4049,5.1512,7.2252,7.0239.4032.2677.7792-.3815.3785-.6476h0Z" style="fill:#dcddce;"/><path d="M125.833,316.0638c0-9.4945,0-18.989,0-28.4835s0-18.989,0-28.4835,0-18.989,0-28.4835c0-9.4529,0-18.9057,0-28.3586,0-9.4945,0-18.989,0-28.4835s0-18.989,0-28.4835,0-18.989,0-28.4835,0-18.989,0-28.4835c0-9.4529,0-18.9057,0-28.3586,0-9.4945,0-18.989,0-28.4835v-6.996c0-.4826-.75-.4834-.75,0,0,9.4945,0,18.989,0,28.4835s0,18.989,0,28.4835,0,18.989,0,28.4835c0,9.4529,0,18.9057,0,28.3586,0,9.4945,0,18.989,0,28.4835s0,18.989,0,28.4835,0,18.989,0,28.4835,0,18.989,0,28.4835c0,9.4529,0,18.9057,0,28.3586,0,9.4945,0,18.989,0,28.4835v6.996c0,.4826.75.4834.75,0h0Z" style="fill:#dcddce;"/><path d="M21.1434,235.5723c-2.6424-.3663-3.9595-3.4657-2.1918-5.5393.977-1.1461,2.3278-1.1903,3.7253-1.2957,1.135-.0856,2.1769-.3453,3.0608-1.093,1.5137-1.2805,2.1053-3.4695,1.8017-5.3822-.3792-2.3889-2.1548-4.3208-4.0635-5.6667-2.6721-1.8841-5.8791-2.7836-8.6931-4.4157-.4183-.2426-.7964.4053-.3785.6476,2.5547,1.4817,5.4196,2.3525,7.9313,3.9118,2.1011,1.3044,4.2308,3.3243,4.5054,5.9226.2246,2.1254-.8356,4.6137-3.0612,5.1697-1.3489.337-2.7844.0598-4.0724.68-.9686.4664-1.7097,1.338-2.0873,2.3365-.9113,2.4096.8046,5.0984,3.3241,5.4476.472.0654.6761-.6571.1994-.7232h0Z" style="fill:#dcddce;"/><path d="M38.0143,224.3455c2.6708-.9692,3.956-4.0519,3.3454-6.7326-.6901-3.0295-3.7867-4.8215-6.7241-4.9612-3.3969-.1616-6.4494,1.8963-8.4199,4.5248-1.1507,1.5349-2.0448,3.3467-2.3048,5.2613-.2465,1.8153.2114,3.5834,1.2332,5.0952,1.9971,2.9549,5.513,5.1436,8.9259,6.0401,3.3897.8904,7.1832.4418,10.0484-1.6689,2.9814-2.1962,4.1578-5.7995,4.5551-9.3436.4673-4.1678.0115-8.4147,1.3438-12.4587,2.174-6.599,8.1205-12.1395,15.0841-13.1901,3.7811-.5705,7.9868.6085,9.675,4.3326.7338,1.6185.7227,3.457-.1498,5.0189-.8289,1.4838-2.2387,2.5386-3.7083,3.3343-3.0569,1.6552-6.6448,2.144-9.5427,4.1236-2.8419,1.9414-4.111,5.1162-3.6384,8.4993.4966,3.5549,2.7418,6.4417,5.6251,8.4569,2.9698,2.0758,6.7015,3.5799,10.2942,4.0686,1.7993.2447,3.6803.184,5.3848-.4946,1.6019-.6377,2.8812-1.7804,3.8816-3.1673,1.0916-1.5133,1.889-3.2774,2.5063-5.0322.6404-1.8207,1.0209-3.884.3857-5.7618-.9419-2.7843-3.8176-4.6887-6.7206-4.7269-3.0938-.0408-5.675,2.2097-6.6767,5.0364-.4894,1.3812-.5746,2.8761-.2313,4.3004.1131.469.8365.2704.7232-.1994-.6994-2.9014.6966-6.1695,3.3021-7.6461,2.6259-1.4882,6.0445-.581,7.9108,1.7044,2.4884,3.0471.7835,7.3271-.8625,10.3634-.8152,1.5038-1.8674,2.9343-3.3392,3.8512-1.5671.9763-3.4202,1.249-5.2375,1.1285-3.4748-.2304-7.0866-1.6574-10.0313-3.4738-2.9192-1.8006-5.3417-4.4362-6.0636-7.8702-.3387-1.6113-.2841-3.3265.3003-4.8756.5952-1.5777,1.7678-2.8238,3.1769-3.7183,2.7457-1.743,6.0359-2.275,8.9099-3.7494,2.5741-1.3205,5.0218-3.5221,5.0918-6.6217.0686-3.0383-2.1229-5.807-4.8364-6.9671-3.2239-1.3782-6.9766-.8531-10.1416.4292-2.8433,1.152-5.3992,2.9658-7.4566,5.2394-2.0557,2.2717-3.6253,4.9888-4.5015,7.9281-1.1193,3.7547-.8015,7.6807-1.1468,11.5364-.3152,3.519-1.3793,7.2629-4.398,9.4089-2.8728,2.0423-6.6056,2.3362-9.9135,1.3113-1.725-.5345-3.3392-1.3984-4.7931-2.4646-1.4204-1.0416-2.7647-2.3097-3.5833-3.8901-1.7901-3.4559.1704-7.5373,2.6956-10.0637,2.3159-2.317,5.6308-3.5611,8.8242-2.4253,2.8841,1.0258,4.6453,3.8992,3.6576,6.8981-.4272,1.297-1.3561,2.4163-2.6586,2.8889-.4502.1634-.2559.8884.1994.7232h0Z" style="fill:#dcddce;"/><path d="M86.3601,224.3519c.9107-3.3422,4.4351-4.7907,7.5742-5.1549,1.8061-.2096,3.6545-.2158,5.4711-.195,1.7712.0202,3.6227.1774,5.2094,1.0335,1.322.7133,2.4689,1.8927,2.7466,3.4136.3124,1.7107-.5361,3.4429-1.677,4.6709-2.2777,2.4517-5.7183,3.33-8.3169,5.3604-2.3005,1.7975-3.5259,4.3661-3.0591,7.2932.4403,2.7607,2.2516,5.1686,4.764,6.38,2.7312,1.317,6.0005,1.3281,8.8323.3181,2.9368-1.0474,5.4196-3.0983,7.3654-5.4991,5.1173-6.3136,6.5325-14.6978,11.3071-21.225.2853-.39-.3652-.7646-.6476-.3785-4.3703,5.9744-5.9018,13.4566-10.0603,19.5503-1.8196,2.6664-4.2016,5.0494-7.1601,6.4179-2.9185,1.35-6.5167,1.5654-9.431.0832-2.6369-1.3411-4.3945-4.1284-4.3273-7.1109.0771-3.4207,2.8235-5.4572,5.5809-6.9436,2.8104-1.5149,5.9852-2.9693,7.2335-6.1437,1.1405-2.9003-.3987-5.7112-3.0945-6.9982-1.7059-.8143-3.6292-.9647-5.4934-.9739-2.002-.0099-4.0363-.0029-6.0191.2994-3.2232.4913-6.603,2.2321-7.5215,5.6029-.1271.4663.5963.6653.7232.1994h0Z" style="fill:#dcddce;"/><path d="M82.0887,253.1878c-1.4571,2.0242-1.4195,4.6939-.4186,6.9073,1.1253,2.4884,3.4479,4.1065,6.1025,4.6046,6.2776,1.1777,11.5589-3.0998,15.3623-7.5718,2.4986-2.9378,4.7014-6.13,7.5206-8.7833.3522-.3315-.1789-.8611-.5303-.5303-4.3929,4.1343-7.3194,9.685-12.1838,13.3412-2.3062,1.7334-5.0185,2.936-7.9384,2.9828-2.6366.0422-5.3636-.9113-6.9394-3.1184-1.547-2.1668-1.9374-5.2168-.3273-7.4535.2824-.3923-.3679-.7672-.6476-.3785h0Z" style="fill:#dcddce;"/><path d="M77.4126,234.7364c-4.8428,7.6285-9.8928,15.235-16.269,21.6878-3.1442,3.1821-6.6081,6.0575-10.4299,8.3928-3.9828,2.4336-8.3152,4.2007-12.4577,6.3311-3.9815,2.0476-7.7396,4.5049-10.6995,7.9058-2.792,3.208-4.8707,7.0327-6.0226,11.128-2.4294,8.6377-.4783,18.3234,5.1555,25.3164,5.1785,6.4278,13.3972,10.5028,21.704,10.1861,7.8642-.2999,15.4835-4.6568,19.6824-11.3215,4.141-6.5728,4.2861-15.1077.7283-21.9687-1.768-3.4095-4.4835-6.4125-7.9009-8.2164-3.3644-1.7759-7.5021-2.5506-11.193-1.3842-3.9907,1.2612-6.5024,4.7344-7.5681,8.6551-1.1358,4.1789-1.0326,9.177,1.8637,12.6434,2.4813,2.9697,6.8562,4.2711,10.1639,1.8418,1.4195-1.0425,2.4592-2.6335,2.5426-4.4246.0799-1.7153-.8733-3.3168-2.2359-4.3044-1.3272-.962-2.9994-1.257-4.5219-.6086-.4427.1885-.061.8348.3785.6476,1.6351-.6963,3.4726.0889,4.5758,1.3656,1.2296,1.423,1.3569,3.3564.4182,4.9716-.9474,1.6301-2.772,2.7656-4.6533,2.8972-1.9611.1371-3.8802-.7315-5.3026-2.0413-3.3056-3.0439-3.6328-7.9759-2.675-12.1151.9132-3.9465,3.2645-7.593,7.2965-8.8314,3.6001-1.1058,7.6199-.2863,10.8548,1.5096,3.214,1.7843,5.7359,4.6728,7.3895,7.9295,3.3699,6.6366,3.1494,14.8245-.8574,21.1311-4.0276,6.3394-11.304,10.5186-18.7996,10.8657-7.9313.3673-15.7564-3.3779-20.8718-9.3695-5.6018-6.5612-7.7354-15.8533-5.7018-24.2191.9733-4.0042,2.8494-7.7944,5.4444-10.9963,2.6758-3.3016,6.07-5.7827,9.7825-7.8049,3.791-2.065,7.7941-3.7079,11.5884-5.7666,3.6594-1.9855,7.0416-4.4329,10.1341-7.2172,6.1881-5.5716,11.1775-12.3345,15.7531-19.2507,1.1358-1.7169,2.2479-3.4493,3.3512-5.1872.2594-.4087-.3893-.7854-.6476-.3785h0Z" style="fill:#dcddce;"/><path d="M99.4625,310.8258c-2.6125-3.282-3.6514-7.5338-3.459-11.6759.2023-4.3538,1.8326-8.5008,4.1121-12.1744,4.8994-7.8956,12.5375-13.4397,18.8516-20.0982,3.3998-3.5852,6.4728-7.5543,8.4226-12.1258.1872-.439-.4586-.8216-.6476-.3785-3.7529,8.799-11.3698,14.9108-18.0802,21.385-6.3163,6.094-12.5937,13.4717-13.3569,22.6011-.385,4.6053.7196,9.3446,3.6269,12.9969.3005.3775.8281-.1563.5303-.5303h0Z" style="fill:#dcddce;"/><path d="M102.2283,284.1231c-5.0414,1.3168-10.3359,1.6291-15.4952.8809-2.498-.3623-4.9709-.9589-7.3485-1.809-2.2201-.7937-4.4104-1.8765-6.0952-3.5601-1.8359-1.8347-3.0166-4.4751-2.5379-7.0936.0863-.4719-.6364-.6742-.7232-.1994-.9204,5.0352,3.1025,8.9765,7.3361,10.8509,4.8955,2.1675,10.4548,3.0601,15.7861,2.9494,3.1308-.065,6.2479-.5046,9.2772-1.2959.4666-.1219.2688-.8455-.1994-.7232h0Z" style="fill:#dcddce;"/><path d="M81.4392,287.6947c-.1679,2.462-.3359,4.924-.5038,7.386-.0138.2023.1822.375.375.375.2145,0,.3612-.1721.375-.375.1679-2.462.3359-4.924.5038-7.386.0138-.2023-.1822-.375-.375-.375-.2145,0-.3612.1721-.375.375h0Z" style="fill:#dcddce;"/><path d="M95.8431,297.9503c3.1516-.7588,6.4038-1.021,9.6368-.7874.4816.0348.4794-.7154,0-.75-3.297-.2382-6.6226.0405-9.8362.8142-.469.1129-.2704.8363.1994.7232h0Z" style="fill:#dcddce;"/><path d="M89.4161,284.1075c.8675-3.2584,1.2575-6.6392,1.1508-10.0095-.0152-.4814-.7653-.4836-.75,0,.1047,3.3076-.2726,6.6122-1.124,9.8101-.1243.4669.599.6661.7232.1994h0Z" style="fill:#dcddce;"/><path d="M29.8149,276.7832c-2.8976,1.7536-6.5492.5541-8.6092-1.9068-2.0955-2.5033-2.841-6.1225-2.2553-9.2959.5947-3.2224,2.6885-6.1144,5.8261-7.2602,2.8625-1.0453,6.1752-.279,8.1357,2.1091,1.0605,1.2917,1.8766,3.4467.7996,4.9633-1.2557,1.7683-3.794,1.4691-5.6466,1.2077-.4721-.0666-.6761.656-.1994.7232,1.9062.2689,4.0277.5166,5.6739-.7114,1.4999-1.1188,1.6898-3.0625,1.0636-4.7265-1.199-3.1862-4.7166-5.1245-8.0507-4.7488-3.5915.4047-6.5602,3.0329-7.8062,6.361-1.2977,3.466-.8714,7.662,1.1113,10.791,1.0608,1.6741,2.5956,3.0319,4.4889,3.6721,1.922.6499,4.0951.5299,5.8469-.5302.4124-.2496.0359-.8984-.3785-.6476h0Z" style="fill:#dcddce;"/><path d="M28.0624,317.129c-2.638-.4219-5.3628.6344-7.1179,2.6371-1.8546,2.1162-2.4671,5.0844-1.9612,7.8144.5074,2.738,2.1954,5.1633,4.3691,6.8573,1.0417.8119,2.3609,1.7319,3.7497,1.6265,1.3042-.0991,2.1421-1.1351,2.5948-2.2749.613-1.5431.7744-3.4243.1291-4.981-.5444-1.3132-1.711-2.3965-3.146-2.6058-.4721-.0688-.676.6537-.1994.7232,1.1479.1674,2.0708.9432,2.5705,1.9759.6093,1.2595.5094,2.7674.1306,4.0776-.2997,1.0366-.9294,2.2698-2.1518,2.3408-1.2333.0717-2.458-.8514-3.3681-1.5877-1.8452-1.4928-3.2888-3.5271-3.8493-5.8523-.5768-2.3927-.188-5.0533,1.2567-7.0735,1.505-2.1045,4.2141-3.367,6.7938-2.9544.4722.0755.6754-.6471.1994-.7232h0Z" style="fill:#dcddce;"/><path d="M68.092,314.7143c1.8055,1.9653,4.3721,3.1123,7.023,3.2938,2.6559.1819,5.2518-.6834,7.295-2.3813,1.9949-1.6577,3.4202-4.0568,3.8525-6.6203.4625-2.7433-.1814-6.0004-2.841-7.4095-1.3051-.6914-2.9295-.7881-4.1833.0716-1.1639.7981-1.8628,2.1754-1.5723,3.5856.0973.4724.8204.2725.7232-.1994-.2375-1.1527.4556-2.2977,1.4372-2.8715,1.0604-.6199,2.3653-.4429,3.3916.1597,2.3334,1.37,2.761,4.3969,2.2506,6.8387-.9553,4.5707-5.0394,8.1599-9.7695,8.1-2.661-.0337-5.2706-1.1317-7.0768-3.0978-.3272-.3562-.8565.1752-.5303.5303h0Z" style="fill:#dcddce;"/><path d="M125.1933,297.8551c-.9261,4.3067-2.9623,8.3517-5.8819,11.6527-.7215.8157-1.4944,1.5861-2.3141,2.3031-.8559.7488-1.8237,1.5495-2.9752,1.7597-2.256.4118-3.6235-2.0571-3.9017-3.9407-.1822-1.2339.024-2.6448.9297-3.567.7775-.7917,1.9383-1.1718,2.9966-.7561.4494.1765.6443-.5485.1994-.7232-1.0036-.3942-2.1466-.1889-3.0377.3896-1.0004.6494-1.6251,1.7073-1.8154,2.8762-.3542,2.175.5091,4.9578,2.5306,6.0853,2.3709,1.3223,4.723-.7281,6.3616-2.2839,1.7874-1.6971,3.3336-3.6551,4.5819-5.78,1.4229-2.4222,2.4588-5.07,3.0494-7.8164.1012-.4706-.6216-.6718-.7232-.1994h0Z" style="fill:#dcddce;"/><path d="M57.8062,323.4471c-.0993,4.7258,2.7635,9.5653,7.6768,10.4031,2.2702.3871,4.6608-.1301,6.3957-1.6945,1.7058-1.5382,2.5407-3.9947,1.6714-6.1915-.4652-1.1757-1.3347-2.1142-2.5204-2.5778-1.1688-.4571-2.5205-.3878-3.6048.2559-.4147.2462-.0379.8948.3785.6476,1.8081-1.0734,4.1011-.1257,4.9507,1.7062.8893,1.9173.1976,4.1059-1.2789,5.5114-1.5014,1.4293-3.6574,1.9505-5.6794,1.6381-2.0662-.3192-3.9106-1.43-5.1809-3.0873-1.439-1.8774-2.1081-4.263-2.0588-6.6112.0101-.4828-.7399-.4827-.75,0h0Z" style="fill:#dcddce;"/><path d="M125.2811,191.7353c-2.2752,7.7094-9.4337,12.996-17.3858,13.4356-3.8135.2108-8.4483-.4442-10.8088-3.8053-1.1467-1.6327-1.7505-3.6462-2.0433-5.6027-.3172-2.119-.1165-4.5099,1.3456-6.1947.7494-.8636,1.7683-1.4056,2.8368-1.7728,1.0898-.3745,2.3279-.753,3.4879-.7232,2.7939.0718,3.4135,3.1383,3.6935,5.3484.0598.4724.8106.4784.75,0-.2567-2.0262-.6233-4.3371-2.4894-5.5371-.9263-.5956-2.0232-.6336-3.0812-.4656-1.1218.1782-2.2614.4977-3.3069.9418-1.97.8367-3.3338,2.4179-3.8599,4.499-.5635,2.229-.1586,4.6661.544,6.8186.6566,2.0115,1.749,3.8648,3.492,5.1137,1.7261,1.2368,3.8533,1.7853,5.9353,2.0259,4.5651.5276,9.3265-.4865,13.2363-2.9154,4.0086-2.4903,7.0412-6.4399,8.3772-10.9669.1369-.4639-.5867-.662-.7232-.1994h0Z" style="fill:#dcddce;"/><path d="M97.3418,200.0628c-5.0713-6.9193-12.5458-11.9997-20.8899-14.0473-9.1194-2.2379-18.7096-.7783-26.9137,3.7018-7.4273,4.0559-13.9137,10.0379-22.0648,12.6906-3.6904,1.2009-8.33,1.9824-11.8341-.1778-3.9084-2.4094-3.8055-7.6783-1.9284-11.3603.9807-1.9237,2.4817-3.6374,4.4599-4.5671,2.0172-.948,4.5523-.9932,6.4758.2062,1.6826,1.0491,2.7475,3.1625,2.4497,5.1451-.2833,1.8856-1.8907,3.2875-3.7685,3.4758-.865.0867-1.6948-.1137-2.4128-.6036-.3997-.2727-.7753.3769-.3785.6476,1.4591.9956,3.382.8987,4.8895.0541,1.6286-.9125,2.5508-2.6352,2.4585-4.4952-.0941-1.8957-1.1294-3.7152-2.704-4.7714-1.7966-1.205-4.1562-1.3742-6.1961-.765-4.1954,1.253-6.8834,5.6804-7.2617,9.8695-.1911,2.1159.2473,4.3395,1.5629,6.0461,1.2081,1.5671,3.022,2.5063,4.9325,2.9135,4.1614.887,8.5775-.3572,12.3855-2.0156,4.1222-1.7953,7.8616-4.3368,11.5879-6.8233,3.8093-2.5419,7.6691-5.1147,11.9333-6.8395,4.8199-1.9495,10.0508-2.8266,15.2429-2.5939,9.5963.4301,18.7491,4.8487,25.1486,11.998.7702.8605,1.4955,1.7588,2.1781,2.6901.2824.3853.9335.0116.6476-.3785h0Z" style="fill:#dcddce;"/><path d="M190.5158,65.2755c2.6112,1.9919,2.1339,6.2859-.1424,8.3346-2.8435,2.5593-7.5282,1.7135-10.2128-.6298-5.1613-4.5052-4.3212-13.203.4639-17.6231,5.3817-4.9711,13.9893-5.0042,20.1213-1.4715,5.742,3.308,9.5253,9.387,10.798,15.8057,1.3615,6.866-.4225,13.8048-4.6331,19.3598-4.3433,5.73-10.8762,9.7245-17.8587,11.3153-7.8384,1.7857-16.1661.3709-23.3819-3.0056-7.4892-3.5044-13.7893-9.0735-18.6267-15.7416-4.8448-6.6782-8.2668-14.3081-10.6301-22.189-2.7331-9.1137-4.1056-18.5648-5.1113-28.0054-.2459-2.3079-.4701-4.618-.6881-6.9287l-.4747.3616c9.734,3.4404,17.6156,10.3926,26.6571,15.1668,4.4232,2.3356,9.3484,4.3301,14.3985,4.5943,2.6316.1377,5.4641-.2979,7.6413-1.879,1.8247-1.3251,3.2098-3.357,3.4549-5.6306.2487-2.3069-.8804-4.4249-2.926-5.5138-1.8128-.9649-4.1022-1.0073-5.664.4498-.3537.33.1775.8595.5303.5303,1.3899-1.2966,3.4719-1.1108,5.0136-.1864,1.8138,1.0875,2.6332,3.0756,2.229,5.1422-.4402,2.251-2.082,4.1958-4.1006,5.2267-2.4227,1.2373-5.2816,1.317-7.9248.9395-9.4333-1.3473-17.4191-7.3241-25.2298-12.3267-4.4009-2.8187-8.9339-5.4882-13.8802-7.2364-.216-.0763-.4968.1278-.4747.3616.9451,10.0163,2.0131,20.0669,4.3985,29.8603,2.1157,8.6862,5.3134,17.1859,10.1533,24.7374,4.6428,7.2439,10.8123,13.5159,18.3988,17.6597,7.3813,4.0318,16.0228,6.0572,24.4018,4.7289,7.3866-1.171,14.4278-5.0187,19.2807-10.7277,2.4081-2.8329,4.2697-6.1262,5.3274-9.6973.9828-3.3182,1.1618-6.8342.6678-10.2518-.9758-6.7508-4.6856-13.2632-10.4634-17.0143-6.1325-3.9814-14.8364-4.4158-20.8261.1138-2.8269,2.1378-4.6522,5.2426-5.1526,8.753-.4674,3.2789.201,6.7849,2.2533,9.4376,2.1999,2.8435,6.0227,4.4378,9.5798,3.5922,3.3227-.7899,5.5036-3.9161,5.0979-7.3161-.1789-1.4994-.8819-2.8252-2.0866-3.7442-.3836-.2926-.7576.3584-.3785.6476h0Z" style="fill:#dcddce;"/><path d="M128.9554,25.468c5.2917,5.2585,11.4706,9.5682,18.1215,12.93,6.8034,3.4389,14.1966,6.1037,21.6995,7.5032,7.3094,1.3633,15.3029,1.0548,21.4691-3.5587,2.5323-1.8947,4.6405-4.4592,5.6508-7.4857.9272-2.7777.908-5.8975-.027-8.6705-.9027-2.6773-2.7125-5.1029-5.2692-6.3921-2.615-1.3186-5.9867-1.4251-8.536.116-.6262.3786-1.1825.8545-1.6601,1.408-.3139.3638.2144.8966.5303.5303,1.9853-2.301,5.3094-2.7866,8.1092-1.8871,2.722.8745,4.7883,3.1265,5.8469,5.734,1.0634,2.6193,1.2277,5.6052.4755,8.3286-.8276,2.9967-2.8177,5.5783-5.2436,7.4748-5.8261,4.5546-13.5231,5.0125-20.5592,3.7855-7.1358-1.2444-14.1876-3.7048-20.7049-6.8418-6.3426-3.0529-12.3032-6.9382-17.4927-11.7059-.6388-.5869-1.2646-1.1874-1.8798-1.7988-.3428-.3406-.8733.1895-.5303.5303h0Z" style="fill:#dcddce;"/><path d="M193.0012,39.5621c5.62-6.2168,12.9215-10.8492,20.9468-13.2706,4.1357-1.2478,9.2347-2.5431,13.367-.6615,1.7296.7876,3.2991,2.1488,3.9964,3.9533.6958,1.8006.368,3.7789-.598,5.4141-2.6609,4.5042-8.3808,4.7883-12.9266,3.528-.4658-.1291-.6646.5942-.1994.7232,4.2296,1.1726,9.3536,1.1268,12.5732-2.2842,1.3264-1.4053,2.2364-3.2625,2.2798-5.2157.0432-1.9452-.8549-3.7723-2.2542-5.0931-3.5384-3.34-8.6995-2.9282-13.096-1.9588-4.4291.9765-8.7111,2.6231-12.6715,4.8313-4.4664,2.4903-8.5185,5.7105-11.9477,9.5038-.323.3573.2058.8893.5303.5303h0Z" style="fill:#dcddce;"/><path d="M235.5488,40.3371c-9.7764,8.3475-16.4501,20.1191-18.9183,32.7115-.6043,3.0831-.9611,6.2175-1.049,9.3584-.0854,3.0536-.0467,6.2533.6087,9.2497.5292,2.4194,1.673,5.0982,4.1203,6.0998,2.8211,1.1545,5.8793-.5822,7.4339-2.9592,1.0335-1.5802,1.5265-3.4571,1.8385-5.2984.3252-1.9189.6769-3.9532.5646-5.9035-.0965-1.6763-.6462-3.3077-2.0157-4.3589-1.1602-.8906-2.6958-1.2288-4.0204-.4999-.423.2327-.045.8807.3785.6476,1.2723-.7001,2.7609-.0869,3.69.9007,1.0932,1.162,1.28,2.8598,1.2245,4.3851-.0612,1.6848-.313,3.4001-.6203,5.0563-.2988,1.61-.7515,3.2212-1.6379,4.6144-1.5028,2.3621-4.7051,4.0296-7.2995,2.3299-2.1325-1.3971-2.8705-4.2948-3.1884-6.6666-.7753-5.7832-.3459-11.8252.85-17.5181,1.2066-5.7441,3.2876-11.2987,6.1527-16.4213,3.2142-5.7468,7.4086-10.9199,12.418-15.1972.3676-.3139-.165-.8423-.5303-.5303h0Z" style="fill:#dcddce;"/><path d="M232.342,140.6503c-1.8551-10.6289-5.983-21.2432-14.0867-28.6739-3.6773-3.372-8.0601-5.9763-12.8809-7.3178-5.5887-1.5551-11.4596-1.426-17.1899-.9637-6.5718.5302-13.1488,1.4958-19.7557,1.0314-.4527-.0318-.4655.5945-.0997.7366,5.9773,2.3212,12.0438,4.8737,17.0502,8.9711,4.6643,3.8174,8.2023,9.1075,8.9392,15.1885.7038,5.808-1.6491,11.9677-7.0757,14.7022-2.5903,1.3053-5.6025,1.4896-8.2966.3808-2.5539-1.0511-4.6597-3.2388-5.1308-6.0176s.628-5.9554,3.0681-7.4985c2.298-1.4533,6.019-1.0782,7.188,1.6485.1896.4423.8359.0607.6476-.3785-1.0369-2.4185-3.9874-3.2553-6.3922-2.6871-2.6541.6271-4.523,3.0275-5.1271,5.5981-.6424,2.7337.0677,5.5736,1.9796,7.639,2.0135,2.1752,5.0803,3.3355,8.0263,3.176,6.4235-.3478,11.09-6.1883,11.8616-12.2395.8067-6.326-1.9829-12.8328-6.2864-17.3788-4.8368-5.1095-11.3009-8.2315-17.7338-10.8321-.8369-.3383-1.6771-.6685-2.5186-.9952l-.0997.7366c11.4027.8014,22.8758-2.8458,34.2177-.6837,10.2644,1.9567,18.3932,9.3081,23.2026,18.3554,2.931,5.5137,4.6994,11.5699,5.7696,17.7016.0828.4746.8057.2734.7232-.1994h0Z" style="fill:#dcddce;"/><path d="M221.0452,165.8897c-1.836,1.3378-3.7473,2.7333-4.9306,4.7201-1.0289,1.7275-1.4242,4.0022-.5357,5.8699,1.7835,3.749,6.8954,3.1223,9.8789,1.4066,3.5544-2.0441,6.0901-5.795,6.6178-9.8641.5304-4.0895-1.145-8.3255-4.2167-11.0555-3.1105-2.7645-7.4724-3.6421-11.4456-2.4494-1.9427.5832-3.7491,1.6429-5.1398,3.127-1.5143,1.6161-2.5234,3.607-3.4752,5.5853-.9673,2.0106-1.9013,4.097-3.3481,5.8194-1.3448,1.601-3.1195,2.7978-5.0837,3.505-3.9769,1.4319-8.4763.9259-11.9693-1.4736-3.5304-2.4252-5.8808-6.5137-6.3658-10.7536-.5291-4.6259,1.1094-9.351,4.046-12.9153.717-.8702,1.5114-1.6699,2.3675-2.4032.3671-.3145-.1655-.8429-.5303-.5303-3.2846,2.8139-5.6531,6.7303-6.4397,10.9993-.74,4.0157.0131,8.1747,2.1767,11.6464,2.0828,3.3421,5.3989,5.9159,9.2961,6.7027,3.7185.7507,7.8016-.0136,10.8869-2.2596,3.5069-2.5529,4.7875-6.6691,6.8062-10.3118,1.0412-1.8787,2.346-3.5895,4.1831-4.749,1.7362-1.0959,3.7697-1.6963,5.8195-1.7597,4.304-.1332,8.1731,2.2294,10.254,5.9631s1.9727,8.2273-.1866,11.9008c-1.9815,3.3708-5.873,6.3811-9.9861,5.8462-2.0676-.2689-3.7161-1.7029-3.8729-3.8538-.1705-2.339,1.163-4.3556,2.8115-5.8804.8629-.7982,1.8119-1.4935,2.7606-2.1848.3863-.2814.0124-.9325-.3785-.6476h0Z" style="fill:#dcddce;"/><path d="M194.9202,171.4274c2.1452-.3923,4.0849-1.6358,5.3641-3.398,1.3274-1.8286,1.7626-4.1819,1.2817-6.3799-.4819-2.203-1.9187-4.0991-3.9357-5.1177-1.9293-.9743-4.3875-1.2043-6.3506-.1877-1.0226.5296-1.8833,1.5037-1.881,2.7065.002,1.0219.5915,2.0544,1.6223,2.319.4678.1201.6673-.6031.1994-.7232-.7702-.1977-1.1316-1.0339-1.065-1.7777.0822-.9192.8693-1.5819,1.6523-1.9505,1.728-.8135,3.8884-.5545,5.5425.3119,3.6064,1.889,4.7105,6.6752,2.5323,10.0617-1.1561,1.7973-3.0682,3.0297-5.1615,3.4125-.4741.0867-.2733.8097.1994.7232h0Z" style="fill:#dcddce;"/><path d="M177.7981,169.4264c2.5715-3.6917.3079-9.3362-4.0015-10.413-2.2616-.5651-4.7305.0615-6.5755,1.4477-1.899,1.4268-2.9904,3.5997-3.0729,5.9681-.0963,2.7644,1.1275,5.5309,3.2328,7.3202.3269.2778.7781-.0638.589-.4544-1.4965-3.0908-4.4883-5.329-7.832-6.0489-3.372-.726-6.8587.2231-9.5464,2.3462-1.5608,1.233-2.8104,2.8322-3.6087,4.6547-.19.4339.4378.8193.6476.3785,1.5757-3.3101,3.2336-6.9612,2.2421-10.697-.7928-2.9873-3.6801-5.4555-6.9014-4.6367-3.2703.8313-3.6068,4.5957-4.9394,7.1182-1.4676,2.7781-4.9449,4.1548-7.9362,3.2052-3.4974-1.1103-5.2488-5.3538-3.9546-8.6893.1747-.4502-.5502-.6453-.7232-.1994-1.059,2.7293-.25,5.9946,1.8358,8.0222,2.1077,2.049,5.2909,2.4019,7.9359,1.245,1.3187-.5767,2.4764-1.5261,3.2347-2.7563.8297-1.3459,1.1942-2.9046,1.8339-4.3374.6517-1.4596,1.6811-2.7539,3.3642-2.9703,1.6817-.2162,3.4164.5901,4.4364,1.9204,2.8698,3.7428.6781,8.7125-1.0757,12.3966l.6476.3785c1.2992-2.9662,3.8402-5.3291,6.9241-6.3482s6.4464-.505,9.1494,1.2775c1.5555,1.0257,2.8063,2.4417,3.6183,4.1186l.589-.4544c-3.3219-2.8233-4.2524-8.3652-.9344-11.5706,1.5028-1.4518,3.6551-2.2649,5.7455-2.0637,2.0409.1964,3.7378,1.4478,4.6672,3.2532,1.005,1.9522,1.0375,4.3772-.239,6.2099-.2765.3969.3734.7722.6476.3785h0Z" style="fill:#dcddce;"/><path d="M143.9413,100.4289c.9197,3.1249-.9021,6.7443-4.1112,7.5937-3.3625.89-6.7653-1.1812-7.5758-4.5351-.8584-3.552.7944-7.0984,2.9544-9.8296,2.3155-2.9278,5.1385-5.3925,7.3246-8.4339,4.3399-6.0381,6.7447-13.2588,8.1856-20.4918,1.4664-7.3608,2.5515-15.5354-1.3645-22.3493-3.3227-5.7817-9.1687-9.5894-14.8006-12.8528-.737-.4271-1.4779-.8475-2.2199-1.2659-.421-.2374-.7994.4103-.3785.6476,5.9863,3.3755,12.4194,7.0586,16.2272,12.9882,4.5079,7.0197,3.2676,15.7241,1.6447,23.4562-1.5859,7.5555-4.2742,15.1013-9.2109,21.1463-2.4249,2.9693-5.4413,5.4687-7.4519,8.7674-1.703,2.7941-2.5637,6.4798-1.2393,9.5986,1.2406,2.9213,4.4074,4.5203,7.5099,4.0047,3.0884-.5132,5.2961-3.288,5.4941-6.3536.0499-.7731-.0462-1.548-.2647-2.2901-.136-.462-.86-.2654-.7232.1994h0Z" style="fill:#dcddce;"/><path d="M154.2925,89.5878c3.1011.4716,6.0598-1.2338,7.9123-3.6403,1.0295-1.3374,1.7626-2.868,2.3493-4.4437.6045-1.6235,1.1359-3.3199,1.5199-5.0099.3535-1.5558.338-3.1617-.6845-4.4655-.8586-1.095-2.1887-1.7656-3.5204-2.0889-2.6769-.6498-5.9587-.0627-7.7166,2.214-1.6065,2.0805-1.2761,5.7228,1.2555,6.9364.4332.2076.8141-.4388.3785-.6476-1.9785-.9484-2.3477-3.675-1.3022-5.45,1.298-2.2038,4.2982-2.8394,6.6534-2.4395,1.2129.206,2.4437.6914,3.3314,1.5663,1.1043,1.0883,1.2293,2.547.9195,4.0047-.3105,1.461-.7777,2.9172-1.2564,4.3311-.4771,1.4091-1.0508,2.7911-1.8403,4.0563-1.626,2.6055-4.5694,4.8445-7.8,4.3533-.4722-.0718-.6758.6508-.1994.7232h0Z" style="fill:#dcddce;"/><path d="M170.2693,101.9187c6.898-.035,14.5647-1.2725,18.9099-7.2311.9081-1.2453,1.5994-2.6686,1.9598-4.1699.3296-1.3732.3855-3.0121-.4621-4.2201-.9859-1.405-2.8573-1.5547-4.4258-1.6986-1.7511-.1607-3.5662-.1203-5.2558.4124-1.6832.5306-3.1425,1.5569-4.0785,3.069-.8689,1.4037-1.1977,3.1419-.5964,4.7112.1709.4462.8963.2525.7232-.1994-1.0646-2.7784,1.0441-5.6536,3.5864-6.6585,1.5054-.595,3.1434-.7236,4.7474-.6464.8015.0386,1.6083.1165,2.399.2549.7842.1372,1.5972.3663,2.1376.9902.9303,1.0739.7819,2.7341.4455,4.0075-.3598,1.3621-.9992,2.6328-1.8279,3.7692-1.7285,2.3701-4.253,4.1102-6.9735,5.154-3.5923,1.3783-7.4735,1.6863-11.2888,1.7056-.4825.0025-.4835.7525,0,.75h0Z" style="fill:#dcddce;"/><path d="M221.4795,114.5893c1.8052,2.1543,2.6482,5.0206,2.4028,7.8115-.2382,2.7094-1.6082,5.1842-3.6728,6.9337-2.0071,1.7008-4.8283,2.8046-7.4809,2.3959-1.3821-.2129-2.6444-.8938-3.3714-2.119-.7105-1.1975-.8708-2.6474-.806-4.0147.0757-1.5967.4661-3.3442,2.0489-4.0819,1.7172-.8004,3.6591-.1864,5.3559.3452.4616.1447.6591-.5791.1994-.7232-1.6911-.5299-3.5141-1.064-5.2744-.527-1.5364.4687-2.4986,1.6755-2.853,3.2149-.6516,2.8308-.1791,6.5962,2.68,8.0468,2.7021,1.371,6.1405.5644,8.6001-.9615,2.5175-1.5619,4.4372-4.087,5.0909-6.9939.7745-3.4443-.1236-7.1533-2.3893-9.8571-.3104-.3704-.8385.1626-.5303.5303h0Z" style="fill:#dcddce;"/><path d="M155.6262,138.9202c-1.6338,3.1023-1.7308,7.2694,1.0767,9.7438,2.3524,2.0733,5.8031,2.098,7.9494-.2769,2.0353-2.2521,2.515-5.5446,1.9326-8.4369-.6261-3.1099-2.4293-5.9628-4.8681-7.9735-2.6922-2.2197-6.0102-3.2861-9.4922-3.1105-4.2734.2155-8.2318,1.98-12.1402,3.56-3.6786,1.487-7.5428,2.8774-11.5747,2.5487-3.3981-.277-6.9574-1.8899-8.3373-5.1989-1.1111-2.6645-.7993-6.586,2.0698-8.0405,2.2479-1.1397,5.5849-.0281,6.6623,2.2642.2778.5911.3651,1.2494.2638,1.8936-.0742.4722.6483.6756.7232.1994.3993-2.5398-1.5354-4.5568-3.841-5.2672-2.6224-.8079-5.3081.2435-6.5282,2.7407-1.2639,2.5869-.7802,5.8908.904,8.1775,1.9842,2.694,5.4184,3.8756,8.6533,4.0169,8.4354.3686,15.3645-6.0343,23.7198-6.1632,3.5701-.055,6.9142,1.3277,9.4289,3.8596,2.3129,2.3287,3.8886,5.5815,3.8521,8.9049-.0319,2.9037-1.5251,6.5231-4.7172,7.0746-1.7354.2998-3.4918-.5348-4.6408-1.8071-1.326-1.4683-1.7288-3.5441-1.4229-5.4625.1605-1.0066.5-1.9677.9742-2.868.2247-.4267-.4224-.8062-.6476-.3785h0Z" style="fill:#dcddce;"/><path d="M148.385,130.7436c2.4877-1.6519,4.6937-3.6981,6.5167-6.0638.9104-1.1814,1.8499-2.464,2.4114-3.8546.5705-1.4128.3461-2.7992-.6086-3.9771-1.6716-2.0624-4.518-3.2297-7.1063-3.4737-2.611-.2461-5.4717.5141-7.2857,2.4954-.9985,1.0906-1.6765,2.6375-1.2217,4.1181.4042,1.3158,1.5993,2.4401,3.0377,2.3481.4793-.0307.4827-.7809,0-.75-1.1678.0747-2.091-.8789-2.3598-1.9585-.2969-1.192.3183-2.4187,1.1164-3.2726,1.6379-1.7524,4.1416-2.4184,6.4776-2.2502,2.339.1684,4.7859,1.1662,6.4394,2.8569.4365.4463.8194.9691.9958,1.5751.1918.6588.0844,1.3275-.1563,1.9587-.4779,1.2533-1.3472,2.4234-2.1465,3.4894-1.7912,2.3887-4.0026,4.4605-6.4886,6.1112-.4003.2658-.0251.9156.3785.6476h0Z" style="fill:#dcddce;"/><path d="M130.0331,22.307c-8.6181,1.0902-17.0194,4.7762-23.155,11.0137-6.1159,6.2174-9.5642,14.9853-8.877,23.7284.3359,4.2731,1.7201,8.3224,3.9535,11.972,2.2349,3.6521,5.1176,6.8483,7.9546,10.0344,2.8848,3.2398,5.7896,6.5196,7.9509,10.3037,2.368,4.146,4.0313,9.3759,2.003,13.9946-.8312,1.8927-2.2295,3.5686-4.0993,4.4979-1.7473.8684-3.8468.9053-5.6509.1789-1.7167-.6912-3.1847-2.1661-3.4311-4.0564-.2228-1.7094.4792-3.5448,1.7726-4.681.667-.5858,1.4913-.9412,2.3781-.9961.4795-.0296.4828-.7799,0-.75-3.4891.2157-5.7327,4.2503-4.686,7.4516,1.1793,3.6068,5.7389,5.0778,9.1073,3.8802,4.025-1.4311,6.2111-5.7806,6.2643-9.8568.0632-4.841-2.3261-9.4041-5.0776-13.2424-5.1807-7.227-12.7013-13.0103-16.0268-21.4676-3.3764-8.5869-1.6652-18.6387,3.4574-26.172,5.2205-7.6773,13.8094-12.6168,22.7832-14.5141,1.1179-.2364,2.2453-.4255,3.3789-.5689.4724-.0598.4784-.8105,0-.75h0Z" style="fill:#dcddce;"/><path d="M126.0634,315.3503c0-9.4945,0-18.989,0-28.4835s0-18.989,0-28.4835,0-18.989,0-28.4835c0-9.4529,0-18.9057,0-28.3586,0-9.4945,0-18.989,0-28.4835s0-18.989,0-28.4835,0-18.989,0-28.4835,0-18.989,0-28.4835c0-9.4529,0-18.9057,0-28.3586,0-9.4945,0-18.989,0-28.4835v-6.996c0-.4826-.75-.4834-.75,0,0,9.4945,0,18.989,0,28.4835s0,18.989,0,28.4835,0,18.989,0,28.4835,0,18.9057,0,28.3586c0,9.4945,0,18.989,0,28.4835s0,18.989,0,28.4835,0,18.989,0,28.4835,0,18.989,0,28.4835c0,9.4529,0,18.9057,0,28.3586,0,9.4945,0,18.989,0,28.4835,0,2.332,0,4.664,0,6.996,0,.4826.75.4834.75,0h0Z" style="fill:#dcddce;"/><path d="M230.2023,235.582c2.1655-.3002,3.8572-2.3942,3.5439-4.5866-.155-1.0849-.7471-2.0882-1.6105-2.7608-1.0131-.7891-2.229-.8653-3.4629-.9472-1.2769-.0848-2.3952-.3875-3.244-1.3978-.7037-.8376-1.0838-1.9473-1.1433-3.0321-.144-2.6236,1.6646-4.8263,3.6891-6.2748,2.6847-1.9208,5.9278-2.8219,8.7674-4.4689.4174-.2421.0402-.8905-.3785-.6476-4.3727,2.5362-10.9353,3.8169-12.5904,9.3497-.5653,1.8895-.1549,4.0922,1.1254,5.6041.6841.8079,1.6239,1.3259,2.6647,1.5016,1.3349.2253,2.8195-.0135,3.987.8072,1.1065.7778,1.7279,2.2254,1.397,3.554-.3435,1.3796-1.5587,2.384-2.9444,2.5761-.476.066-.2734.7887.1994.7232h0Z" style="fill:#dcddce;"/><path d="M213.3314,222.9087c-2.6665-.9676-3.6659-4.5296-2.411-6.9442,1.4617-2.8127,5.1068-3.8232,8.013-2.9946,3.3548.9565,6.0823,3.9988,7.1776,7.2496.6151,1.8255.6137,3.7533-.3063,5.4762-.8391,1.5713-2.1935,2.8319-3.6222,3.8661-2.8978,2.0975-6.5323,3.4278-10.14,2.8687-3.5416-.5488-6.4146-2.7407-7.7546-6.0783-1.4502-3.6122-1.1831-7.5725-1.4201-11.379-.2096-3.367-.9963-6.575-2.6808-9.5169-3.1136-5.4375-8.9393-9.7496-15.3195-10.1311-3.2911-.1968-6.6149.9325-8.5258,3.7334-1.7076,2.5029-1.6453,5.6538.3138,7.9908,1.9934,2.3781,5.0684,3.3973,7.8961,4.3869,3.0983,1.0843,6.5206,2.4817,7.7382,5.8173,1.1644,3.19.1314,6.8743-1.9808,9.4206-2.2308,2.6892-5.4448,4.3662-8.6838,5.5283-3.2891,1.18-7.3359,2.0234-10.482.0058-1.4862-.9531-2.5372-2.4344-3.3496-3.9738-.8834-1.674-1.672-3.5149-1.9494-5.3974-.2571-1.7447.0803-3.4884,1.2324-4.8539.9295-1.1017,2.2178-1.8795,3.6183-2.2132,3.0585-.7289,5.9407,1.0901,7.1455,3.8939.5855,1.3624.7448,2.8789.3966,4.3231-.1131.469.61.6691.7232.1994.7086-2.9394-.4825-6.1707-2.8906-7.9926-2.4488-1.8527-5.8105-1.6924-8.2547.0923-1.1525.8415-2.07,2-2.5094,3.3676-.6101,1.8992-.2045,3.9659.4505,5.7947,1.1854,3.3097,3.0494,6.8642,6.5359,8.1618,3.5107,1.3066,7.5173.1683,10.8348-1.1821,3.2751-1.3331,6.4529-3.2602,8.4788-6.2349,1.8552-2.7241,2.5528-6.4727,1.2383-9.5665-1.3956-3.2844-4.7532-4.7377-7.9104-5.8494-3.0755-1.0829-6.7897-2.2223-8.4549-5.3015-1.789-3.3082.4408-7.212,3.6215-8.6314,3.611-1.6114,7.9509-.6102,11.317,1.1446,3.0629,1.5967,5.6828,4.0142,7.5553,6.9141,2.0742,3.2124,2.9755,6.7627,3.1732,10.5551.2059,3.95.0168,8.0461,1.6911,11.7335,1.4949,3.2923,4.5447,5.4499,8.1017,5.9762,3.6741.5436,7.3669-.6802,10.3686-2.777,2.9189-2.0389,5.4644-4.9821,4.9135-8.7744-.5091-3.5048-3.0753-6.9218-6.1739-8.5866-2.8048-1.5069-6.3491-1.5082-8.95.4494-2.3756,1.788-3.1249,4.9403-1.7895,7.6069.5928,1.1837,1.5799,2.0938,2.8253,2.5457.4545.1649.6503-.5596.1994-.7232h0Z" style="fill:#dcddce;"/><path d="M165.5095,223.439c-.8018-2.9425-3.5752-4.7356-6.4078-5.3917-1.7387-.4027-3.5346-.4628-5.3119-.4926-1.7682-.0297-3.5617-.078-5.3024.2875-2.7145.5699-5.4838,2.5438-5.5142,5.5692-.0332,3.2996,2.7748,5.5823,5.3957,7.0428,2.7387,1.5262,6.2653,2.8889,7.4414,6.0799.9981,2.7083-.0026,5.8999-2.0463,7.8511-2.3762,2.2685-6.0066,2.762-9.1036,2.0129-3.2039-.7749-5.9106-2.875-7.9998-5.3614-5.2739-6.2766-6.6336-14.8053-11.4439-21.3811-.2821-.3856-.9332-.0118-.6476.3785,4.3314,5.9212,5.8753,13.319,9.949,19.3858,3.3863,5.0431,9.0914,9.2515,15.4683,7.7586,2.7865-.6523,5.145-2.4746,6.271-5.1294,1.067-2.5158.9138-5.4386-.7975-7.6312-2.0343-2.6064-5.2978-3.6267-7.9824-5.3688-1.4548-.944-2.7781-2.178-3.4098-3.8317-.5976-1.5644-.3854-3.2371.7162-4.5178,1.235-1.4356,3.0831-2.0851,4.917-2.2982,2.0168-.2343,4.1239-.1462,6.1467-.0311,3.5352.2011,7.8803,1.3835,8.9387,5.268.1267.4651.8505.2677.7232-.1994h0Z" style="fill:#dcddce;"/><path d="M168.41,252.8528c1.4366,1.9957,1.2871,4.657.1181,6.7469-1.309,2.3401-3.783,3.6059-6.4084,3.7982-6.0409.4423-10.7094-4.0099-14.2622-8.3338-2.2221-2.7045-4.2784-5.556-6.8364-7.9634-.3513-.3306-.8827.1987-.5303.5303,4.7765,4.4953,7.8822,10.6905,13.517,14.278,2.5114,1.5989,5.5053,2.5317,8.4994,2.2038,2.6323-.2883,5.0862-1.5552,6.4994-3.8461,1.4422-2.338,1.7063-5.4928.051-7.7924-.2794-.3882-.9303-.0142-.6476.3785h0Z" style="fill:#dcddce;"/><path d="M173.0861,234.4014c4.4795,7.0562,9.1333,14.0769,14.8355,20.2197,2.7866,3.002,5.8271,5.775,9.1607,8.1603,3.5095,2.5112,7.35,4.4029,11.2355,6.2505,3.9024,1.8557,7.8617,3.7438,11.2466,6.4704,3.1678,2.5517,5.7361,5.8084,7.5264,9.458,3.83,7.8079,3.6839,17.1716-.3115,24.892-3.676,7.1031-10.5888,12.3489-18.4413,13.9189-7.5869,1.5169-15.5522-.8929-21.1284-6.2395-2.6925-2.5816-4.7772-5.8157-5.8292-9.4066-1.0291-3.5128-1.0961-7.285-.2863-10.8496,1.645-7.2411,7.1196-13.8153,14.7668-14.8648,3.8037-.522,7.6955.5997,10.1105,3.7057,2.581,3.3195,3.5342,8.2967,2.6665,12.3764-.8116,3.8155-4.0709,7.7003-8.3388,7.2576-3.6663-.3804-6.8361-4.7318-4.0089-7.9152,1.1034-1.2424,2.9177-1.9884,4.523-1.3047.4391.187.8217-.4589.3785-.6476-3.2305-1.3757-7.0349,1.6577-6.7463,5.0854.3225,3.8303,4.4705,6.1837,8.0183,5.3739,4.1872-.9558,6.6618-4.9837,7.1161-9.0225.4738-4.2128-.673-9.0934-3.5483-12.2963-2.63-2.9296-6.6119-3.8767-10.4098-3.3307-3.8941.5599-7.4491,2.575-10.1045,5.4494-5.18,5.6072-7.0184,14.0667-4.8093,21.3523,2.2978,7.5781,8.8648,13.3916,16.3797,15.5592,7.9717,2.2993,16.5826.1024,23.0215-4.9728,7.009-5.5245,10.8959-14.3824,10.514-23.2736-.3749-8.7277-4.9421-16.9184-12.0337-21.9765-3.7713-2.6898-8.0445-4.5384-12.1953-6.5465-4.1581-2.0117-8.0963-4.3168-11.6741-7.2547-6.9679-5.7216-12.4469-13.0083-17.4067-20.4751-1.2152-1.8295-2.4024-3.6773-3.5795-5.5315-.258-.4064-.9073-.0306-.6476.3785h0Z" style="fill:#dcddce;"/><path d="M152.2141,310.6426c2.5718-3.2308,3.7379-7.3147,3.7009-11.4143-.0388-4.2977-1.4303-8.4509-3.5364-12.1649-4.7129-8.3111-12.5335-14.0616-19.0756-20.8108-3.5957-3.7095-6.8587-7.809-8.8991-12.5931-.1888-.4426-.835-.0609-.6476.3785,3.6034,8.4486,10.7769,14.4791,17.2791,20.6578,6.3067,5.9929,12.8816,13.1336,13.9748,22.1617.5607,4.6301-.3769,9.5492-3.3265,13.2546-.2976.3739.2297.908.5303.5303h0Z" style="fill:#dcddce;"/><path d="M148.7187,284.1328c5.3648,1.4013,10.9857,1.6701,16.4608.7942,2.6718-.4274,5.3358-1.1086,7.8459-2.1271,2.2242-.9025,4.3975-2.1411,5.961-4.0008,1.6724-1.9892,2.6065-4.5737,2.1317-7.1707-.0867-.4741-.8096-.2733-.7232.1994.9193,5.0293-3.603,8.6803-7.7612,10.326-4.725,1.87-9.9136,2.6669-14.9818,2.5164-2.9512-.0876-5.8777-.5146-8.7339-1.2606-.4674-.1221-.6667.6011-.1994.7232h0Z" style="fill:#dcddce;"/><path d="M168.9571,286.9812c.1679,2.462.3359,4.924.5038,7.386.0138.2021.1625.375.375.375.1923,0,.3889-.1719.375-.375-.1679-2.462-.3359-4.924-.5038-7.386-.0138-.2021-.1625-.375-.375-.375-.1923,0-.3889.1719-.375.375h0Z" style="fill:#dcddce;"/><path d="M155.5026,296.5135c-3.2136-.7737-6.5392-1.0524-9.8362-.8142-.4786.0346-.4824.7849,0,.75,3.233-.2336,6.4852.0287,9.6368.7874.469.1129.6692-.6101.1994-.7232h0Z" style="fill:#dcddce;"/><path d="M162.4534,283.1946c-.8514-3.1979-1.2288-6.5025-1.124-9.8101.0153-.4828-.7347-.4822-.75,0-.1067,3.3703.2833,6.7511,1.1508,10.0095.1241.466.8477.2683.7232-.1994h0Z" style="fill:#dcddce;"/><path d="M220.9529,276.7173c3.1944,1.9332,7.2998.6711,9.5667-2.0821,2.3581-2.8641,3.1288-6.9479,2.2824-10.5267-.8319-3.5173-3.4553-6.5481-7.0132-7.4676-3.2629-.8432-6.9524.4922-8.7138,3.4245-.9719,1.6179-1.3597,3.8963.0368,5.3969,1.5842,1.7022,4.0923,1.4408,6.1688,1.1479.476-.0672.2735-.7899-.1994-.7232-1.7286.2439-3.818.5126-5.2379-.7575-1.3091-1.171-.9987-3.1178-.2265-4.5023,1.4822-2.6576,4.7516-3.9771,7.6836-3.3322,3.2078.7056,5.683,3.283,6.61,6.3831.9374,3.1349.4851,6.7465-1.2693,9.5188-.9514,1.5034-2.3385,2.7518-4.0407,3.3274-1.7405.5885-3.6785.5079-5.2689-.4546-.414-.2505-.7914.3977-.3785.6476h0Z" style="fill:#dcddce;"/><path d="M223.2833,317.1387c2.3056-.3688,4.6851.5988,6.2519,2.2924,1.6842,1.8205,2.3096,4.4555,1.9646,6.8769-.3395,2.3823-1.6274,4.5352-3.3763,6.157-.8734.81-1.9399,1.6588-3.0945,2.0127-1.2992.3982-2.2633-.2856-2.7915-1.4513-1.0759-2.3742-.726-6.3542,2.4282-6.8141.4758-.0694.2735-.7922-.1994-.7232-1.2779.1863-2.3637,1.0762-2.9588,2.2028-.7078,1.3399-.7116,2.9329-.3692,4.3782.2773,1.1705.8322,2.4858,1.9819,3.0374,1.3137.6304,2.7463-.0521,3.8545-.7905,2.2776-1.5175,4.1194-3.7532,4.9285-6.3894.8198-2.6712.4984-5.765-1.0954-8.0938-1.6959-2.4781-4.7405-3.8955-7.724-3.4183-.4753.076-.2736.7989.1994.7232h0Z" style="fill:#dcddce;"/><path d="M182.524,313.4705c-3.238,3.5246-8.846,4.0968-12.731,1.3182-1.8642-1.3333-3.2674-3.3233-3.9139-5.52-.6839-2.3236-.6249-5.2939,1.2654-7.0558.978-.9115,2.4626-1.4468,3.7626-.9446,1.197.4624,2.1185,1.7701,1.8501,3.0731-.097.4711.6257.6725.7232.1994.2546-1.236-.2492-2.4877-1.2008-3.3002-1.0052-.8582-2.3398-1.1084-3.605-.7442-2.9216.841-4.1183,3.9591-3.917,6.7595.3821,5.3158,4.8555,9.8913,10.2351,10.0584,2.999.0932,6.0234-1.0948,8.0616-3.3134.3261-.3549-.2029-.8867-.5303-.5303h0Z" style="fill:#dcddce;"/><path d="M125.2298,297.3409c1.0427,4.8488,3.4808,9.3747,6.9471,12.9218.8777.8982,1.8189,1.7878,2.8664,2.4864,1.0004.6672,2.2212,1.1188,3.4249.7849,2.2426-.6221,3.3665-3.3088,3.366-5.4457-.0003-1.3438-.4743-2.7119-1.5445-3.5721-.9416-.7568-2.2364-1.0992-3.3895-.6463-.4442.1745-.2508.9.1994.7232.9232-.3626,1.9323-.1246,2.6966.4841.8907.7093,1.2741,1.8338,1.2872,2.9449.0221,1.8738-.9815,4.5209-3.0956,4.85-1.1613.1808-2.268-.4992-3.1408-1.189s-1.6872-1.4653-2.4505-2.2742c-1.5035-1.5932-2.7956-3.3787-3.8495-5.2989-1.1989-2.1843-2.0703-4.5329-2.5941-6.9686-.1014-.4716-.8246-.272-.7232.1994h0Z" style="fill:#dcddce;"/><path d="M192.5901,322.7336c.0874,4.1581-2.22,8.4512-6.4509,9.536-1.9754.5065-4.1484.2485-5.8316-.9473-1.6792-1.193-2.706-3.2896-2.1633-5.3393.287-1.0838.9832-2.0316,2.0088-2.5154,1.0098-.4763,2.2247-.4641,3.1897.1088.416.247.7937-.4011.3785-.6476-1.9882-1.1803-4.6088-.3615-5.7677,1.5806-1.2113,2.03-.7666,4.5558.7126,6.3112,1.5012,1.7814,3.8659,2.6025,6.157,2.422,2.3312-.1836,4.5069-1.2956,6.0121-3.0864,1.7279-2.0558,2.5608-4.7546,2.5048-7.4226-.0101-.4819-.7602-.4836-.75,0h0Z" style="fill:#dcddce;"/><path d="M125.142,191.2212c1.191,4.0356,3.7174,7.583,7.0899,10.0904,3.6303,2.6991,8.2125,4.0416,12.7206,3.9199,2.1686-.0585,4.394-.4093,6.3657-1.3494,1.9331-.9216,3.388-2.4784,4.2784-4.4169,1.7117-3.7268,2.4589-9.4513-1.4232-12.1199-.9586-.6589-2.0922-1.0381-3.2084-1.3303-1.2625-.3305-2.6542-.6447-3.9141-.1386-2.3162.9305-2.7855,3.6517-3.0616,5.8307-.0605.4776.6901.4731.75,0,.2421-1.9109.644-4.5248,2.7909-5.2074,1.0822-.3441,2.2728-.0181,3.3323.2642.9639.2569,1.922.5794,2.7675,1.12,3.7435,2.3938,2.8649,8.0733,1.1889,11.4749-.8937,1.8138-2.2959,3.1877-4.1517,4.0011-1.8159.7959-3.8524,1.0814-5.8211,1.1244-4.0919.0893-8.2112-1.0588-11.6011-3.3689-3.5225-2.4005-6.1731-6.0048-7.3798-10.0937-.1363-.4619-.8603-.2653-.7232.1994h0Z" style="fill:#dcddce;"/><path d="M154.4522,199.7278c5.5779-7.6105,14.1432-12.8602,23.4727-14.3081,5.1707-.8024,10.5211-.4497,15.5489.9916,4.5835,1.314,8.716,3.6423,12.6944,6.2213,3.7894,2.4565,7.4634,5.1144,11.4544,7.2438,3.7577,2.0049,7.9902,3.6702,12.3054,3.7199,1.9941.023,4.0674-.3255,5.8083-1.3427,1.7864-1.0437,3.0281-2.7752,3.4902-4.7882.9486-4.1321-.9166-8.9439-4.2486-11.5165-3.2935-2.5429-8.7368-2.5838-10.9438,1.412-.9082,1.6443-1.1078,3.774-.1152,5.431.8885,1.4832,2.6376,2.413,4.358,2.3935.8361-.0095,1.6425-.2538,2.3332-.7251.3963-.2704.0216-.9206-.3785-.6476-1.5253,1.0408-3.6073.6857-4.9387-.522-1.4943-1.3554-1.596-3.5856-.7321-5.3196.9836-1.9745,2.9978-3.0596,5.173-3.0823,2.2797-.0238,4.3706,1.0322,5.9093,2.6765,2.7828,2.9738,4.2589,8.1643,1.9982,11.8403-2.2537,3.6647-7.25,3.8279-11.0142,3.0682-8.4278-1.7011-15.1682-7.5274-22.3181-11.9018-3.7916-2.3198-7.7925-4.2322-12.1303-5.2783-4.579-1.1043-9.354-1.3278-14.0163-.6621-8.652,1.2354-16.7388,5.7198-22.4541,12.3211-.6681.7717-1.3003,1.5735-1.9036,2.3967-.2856.3897.3649.7643.6476.3785h0Z" style="fill:#dcddce;"/></g></svg>